<svg width="64" height="64" viewBox="0 0 64 64" fill="none" xmlns="http://www.w3.org/2000/svg">
<g clip-path="url(#clip0_2_2)">
<circle cx="32" cy="32" r="32" fill="white"/>
<path d="M5.07129 49.2939C5.32188 49.2419 5.78405 49.1952 6.5918 49.249C8.40893 49.3702 11.8653 49.9815 18.3525 51.9775C25.745 54.2521 30.2416 55.285 38.0186 55C43.8276 54.7871 48.9995 53.5244 52.7168 52.3174C54.5765 51.7136 56.0753 51.1224 57.1104 50.6816C57.6277 50.4613 58.0301 50.2788 58.3037 50.1504C58.3308 50.1377 58.3563 50.1249 58.3809 50.1133C52.6115 58.4999 42.9489 64 32 64C20.6979 64 10.7645 58.1406 5.07129 49.2939ZM4.71777 15.4121V15.4131L4.71875 15.4141C4.71989 15.4148 4.72241 15.4155 4.72461 15.417C4.729 15.42 4.73571 15.4249 4.74414 15.4307C4.76125 15.4423 4.78625 15.46 4.81934 15.4824C4.88601 15.5276 4.98492 15.5937 5.11328 15.6797C5.37041 15.852 5.74745 16.1023 6.22656 16.415C7.18492 17.0405 8.55425 17.9163 10.1982 18.918C13.4841 20.92 17.8778 23.4309 22.292 25.4541C28.3242 28.2189 33.604 29.8541 37.3789 30.7979C39.0502 31.2157 40.4274 31.4954 41.4443 31.6807L2.83691 45.0273L2.77441 45.0488C0.992352 41.0636 0 36.6478 0 32C0 25.9092 1.70139 20.2156 4.65527 15.3691L4.71777 15.4121ZM63.293 25.29C63.7547 27.4539 64 29.6983 64 32C64 33.6033 63.88 35.1787 63.6523 36.7188L63.1787 37.1172L63.1768 37.1191L63.123 37.1621C63.0834 37.194 63.0223 37.2426 62.9414 37.3047C62.7796 37.4289 62.5365 37.61 62.2158 37.832C61.5737 38.2766 60.6213 38.8859 59.3906 39.5391C56.9286 40.8459 53.3569 42.3239 48.9238 43.0059C42.4733 43.9982 36.6401 43.8744 32.4189 43.502C30.3556 43.3199 28.6795 43.0776 27.5068 42.8789C27.6791 42.8226 27.8624 42.7646 28.0547 42.7012C29.55 42.208 31.6327 41.5037 33.9814 40.6582C38.6729 38.9693 44.4515 36.7098 48.7344 34.4424C53.3982 31.9733 57.1636 29.5879 59.7646 27.8193C61.0653 26.935 62.0751 26.2036 62.7607 25.6934C62.9685 25.5387 63.1454 25.4023 63.293 25.29ZM32 0C45.8519 0 57.6471 8.80172 62.1006 21.1172C62.0549 21.1341 62.0021 21.1557 61.9404 21.1768C61.6892 21.2625 61.3055 21.3802 60.79 21.5039C59.7588 21.7513 58.1975 22.0209 56.1064 22.0986C51.9258 22.254 45.6156 21.6417 37.1729 18.5312C28.7367 15.4232 23.8024 11.7119 20.9844 8.80371C19.5748 7.34899 18.6918 6.09185 18.1641 5.20703C17.9001 4.76449 17.7242 4.41411 17.6162 4.17871C17.5623 4.06123 17.525 3.9718 17.502 3.91406C17.4905 3.88539 17.4823 3.86441 17.4775 3.85156C17.4752 3.84518 17.4745 3.84021 17.4736 3.83789L17.4727 3.83691L17.3682 3.5332C21.7533 1.27473 26.7278 0 32 0Z" fill="#161616"/>
</g>
<defs>
<clipPath id="clip0_2_2">
<rect width="64" height="64" fill="white"/>
</clipPath>
</defs>
</svg>
